<mxfile host="app.diagrams.net" modified="2023-08-09T05:08:20.251Z" agent="Mozilla/5.0 (X11; Linux x86_64) AppleWebKit/537.36 (KHTML, like Gecko) Chrome/110.0.0.0 Safari/537.36 Edg/110.0.1587.41" version="21.6.7" etag="KnJPA3shxXO14GWXo5L_" type="github">
  <diagram name="第 1 页" id="_s3Vy_xH6mA03k1N-w7L">
    <mxGraphModel>
      <root>
        <mxCell id="0" />
        <mxCell id="1" parent="0" />
      </root>
    </mxGraphModel>
  </diagram>
</mxfile>
